<svg width="72" height="48" viewBox="0 0 72 48" fill="none" xmlns="http://www.w3.org/2000/svg">
<path d="M4 0.5H68C69.933 0.5 71.5 2.067 71.5 4V44C71.5 45.933 69.933 47.5 68 47.5H4C2.06701 47.5 0.5 45.933 0.5 44V4C0.5 2.067 2.067 0.5 4 0.5Z" fill="white" stroke="#ABABAB"/>
<g clip-path="url(#clip0_30588_7454)">
<path d="M11.9216 15.0101L37.6885 15C39.2346 15.1082 40.4706 16.2763 40.6837 17.8554C40.7371 21.9552 40.7371 26.0685 40.6837 30.1683C40.4919 31.5723 39.4454 32.7132 38.082 32.9562C29.3739 33.0444 20.6538 32.9675 11.9412 32.9953C10.4134 32.9012 9.18034 31.6628 9 30.1127V17.9116C9.17862 16.3437 10.3916 15.1419 11.9216 15.0101ZM18.9187 18.914C17.4484 17.4532 14.6095 18.2037 12.7441 18.0133C12.4248 18.0429 12.1841 18.2913 12.156 18.6189V27.485C12.2289 28.3212 13.6027 28.2929 13.6797 27.485C13.7457 26.796 13.6176 25.9928 13.6785 25.2979C13.7055 24.9903 13.9261 24.7011 14.2368 24.6615C14.8599 24.5823 15.7048 24.6875 16.3624 24.6633C17.1492 24.6343 17.9751 24.5006 18.6235 24.0068C20.08 22.8967 20.211 20.1992 18.9182 18.914H18.9187ZM27.1392 26.5239V27.4548C27.1392 27.6742 27.3368 27.9421 27.5297 28.0279C27.9588 28.2177 28.4217 27.9315 28.4607 27.4566C28.4148 26.3364 28.5176 25.1713 28.4607 24.0565C28.339 21.6766 26.6028 20.1631 24.3106 20.2595C21.5538 20.3755 19.9721 22.8908 20.6894 25.5853C21.4045 28.271 25.0463 29.3142 26.8061 27.0822L27.1392 26.5239ZM35.7783 26.8486V29.8471C35.7783 29.8601 35.8754 30.0571 35.8932 30.0831C36.2332 30.5769 37.0826 30.4267 37.2113 29.8158L37.1998 20.9681C36.9942 20.2412 35.8472 20.3069 35.7772 21.071C35.6566 22.3822 36.0919 24.8496 35.4004 25.9124C34.6618 27.0479 32.7366 27.1774 31.8757 26.1531C30.9131 25.0069 31.4932 22.4194 31.3272 20.9864C31.1319 20.2483 30.0442 20.2826 29.9075 21.0562C30.0287 23.2841 29.2579 26.4269 31.5219 27.7588C32.6631 28.4301 34.4895 28.4454 35.4044 27.3649C35.544 27.1999 35.6353 26.9988 35.7783 26.8486Z" fill="#092D6D"/>
<path d="M61.4568 26.8663C58.4852 29.7602 52.9699 28.1089 52.5983 23.6709C52.2577 19.6078 55.5814 16.9671 59.3548 18.0157C63.1143 19.0601 64.2251 24.1706 61.4568 26.8663ZM60.3949 20.298C58.553 18.4297 55.111 19.1175 54.2995 21.7292C53.3334 24.8389 55.8295 27.5394 58.8953 26.696C61.5407 25.968 62.2752 22.2053 60.3949 20.298Z" fill="#092D6D"/>
<path d="M49.1722 20.2999C47.718 18.8356 45.1128 18.9101 43.7717 20.4963C42.6403 21.8347 42.6104 24.0851 43.6724 25.4743C45.0795 27.3148 48.1051 27.2965 49.4812 25.4282C49.8384 24.9432 49.8488 24.4801 50.6029 24.5452C51.0175 24.5807 51.3374 24.8971 51.2651 25.3442C51.203 25.7269 50.5954 26.5135 50.3174 26.7908C48.3004 28.804 44.7194 28.7999 42.7425 26.7281C40.9242 24.8226 40.8955 21.4189 42.6529 19.4625C44.6666 17.221 48.5594 17.2588 50.5311 19.5376C50.7442 19.7842 51.2381 20.4691 51.2754 20.7802C51.3725 21.5875 50.2077 21.7974 49.8132 21.2214C49.5897 20.8949 49.4686 20.5986 49.1722 20.3005V20.2999Z" fill="#092D6D"/>
<path d="M18.9189 18.9129C20.2118 20.1975 20.0808 22.8955 18.6243 24.0056C17.9759 24.4995 17.15 24.6337 16.3632 24.6621C15.7055 24.6864 14.8607 24.5805 14.2375 24.6604C13.9268 24.7 13.7063 24.9892 13.6793 25.2967C13.6178 25.9917 13.7459 26.7948 13.6804 27.4838C13.6035 28.2911 12.2291 28.3195 12.1567 27.4838V18.6178C12.1855 18.2895 12.4255 18.0417 12.7449 18.0122C14.6103 18.2026 17.4492 17.4521 18.9195 18.9129H18.9189ZM14.187 19.4682C13.8924 19.5717 13.7074 19.7716 13.6787 20.0969C13.6087 20.8865 13.7293 21.7778 13.6787 22.578C13.7092 22.8938 13.9619 23.1516 14.2668 23.1836C14.8664 23.2463 16.4114 23.2398 16.9794 23.1102C17.7352 22.9381 18.1861 22.4053 18.243 21.6045C18.4382 18.8733 15.9628 19.538 14.187 19.4682Z" fill="#F5F6F6"/>
<path d="M27.1392 26.5226L26.8061 27.0809C25.0463 29.3124 21.4045 28.2691 20.6895 25.584C19.9721 22.8895 21.5544 20.3742 24.3106 20.2583C26.6028 20.1619 28.3384 21.6747 28.4608 24.0552C28.5176 25.17 28.4148 26.3351 28.4608 27.4553C28.4217 27.9302 27.9594 28.2171 27.5298 28.0266C27.3368 27.9409 27.1392 27.6729 27.1392 27.4535V26.5226ZM26.2387 22.2496C24.8614 20.9893 22.428 21.67 22.038 23.5903C21.6216 25.645 23.081 27.2708 25.1135 26.8745C27.1404 26.48 27.7003 23.5868 26.2381 22.249L26.2387 22.2496Z" fill="#F5F6F6"/>
<path d="M35.7783 26.8482C35.6352 26.9984 35.5439 27.1995 35.4044 27.3645C34.4895 28.4451 32.6625 28.4297 31.5219 27.7584C29.2578 26.4271 30.0286 23.2843 29.9074 21.0558C30.0441 20.2822 31.1319 20.2473 31.3272 20.986C31.4932 22.4196 30.9137 25.0071 31.8757 26.1527C32.736 27.1776 34.6612 27.0475 35.4003 25.912C36.0918 24.8492 35.6565 22.3818 35.7771 21.0706C35.8478 20.3065 36.9941 20.2408 37.1997 20.9677L37.2112 29.8154C37.0826 30.4263 36.2331 30.5771 35.8931 30.0827C35.8747 30.0567 35.7783 29.8597 35.7783 29.8467V26.8482Z" fill="#F5F6F6"/>
<path d="M14.1867 19.4693C15.962 19.5391 18.4379 18.8743 18.2427 21.6055C18.1852 22.4063 17.7344 22.9392 16.9791 23.1113C16.4111 23.2408 14.8667 23.2473 14.2666 23.1846C13.9616 23.1527 13.7089 22.8948 13.6784 22.579C13.7296 21.7788 13.6089 20.8875 13.6784 20.098C13.7072 19.7727 13.8927 19.5728 14.1867 19.4693Z" fill="#092D6D"/>
<path d="M26.2388 22.2491C27.701 23.5869 27.141 26.4795 25.1142 26.8746C23.0816 27.2703 21.6217 25.6444 22.0387 23.5904C22.4281 21.6695 24.8615 20.9893 26.2393 22.2497L26.2388 22.2491Z" fill="#092D6D"/>
</g>
<defs>
<clipPath id="clip0_30588_7454">
<rect width="54" height="18" fill="white" transform="translate(9 15)"/>
</clipPath>
</defs>
</svg>
